<svg width="16" height="16" viewBox="0 0 16 16" xmlns="http://www.w3.org/2000/svg">
  <path d="M 2.5546875,2.3339844 C 1.1551377,2.3339843 -8.9971062e-8,3.4891221 0,4.8886719 V 13.445313 C -4.4985539e-7,14.844863 1.1551375,16 2.5546875,16 h 8.5566405 c 1.39955,0 2.554688,-1.155137 2.554688,-2.554687 V 8.7773438 a 1,1 0 0 0 -1,-1.0000001 1,1 0 0 0 -1,1.0000001 V 13.445313 C 11.666016,13.763982 11.429998,14 11.111328,14 H 2.5546875 C 2.2360179,14 1.9999999,13.763982 2,13.445313 V 4.8886719 C 2,4.5700024 2.236018,4.3339844 2.5546875,4.3339844 h 4.6679687 a 1,1 0 0 0 1.0000001,-1 1,1 0 0 0 -1.0000001,-1 z" />
  <path d="M 14.292969,0.29296875 5.7382812,8.8476563 a 1,1 0 0 0 0,1.4140627 1,1 0 0 0 1.4140625,0 L 15.707031,1.7070312 a 1,1 0 0 0 0,-1.41406245 1,1 0 0 0 -1.414062,0 z" />
  <path d="m 4.7675781,5.6015625 a 1,1 0 0 0 -1,1 v 4.6660155 a 1.0001,1.0001 0 0 0 1,1 h 4.6660157 a 1,1 0 0 0 1.0000002,-1 1,1 0 0 0 -1.0000002,-1 H 5.7675781 V 6.6015625 a 1,1 0 0 0 -1,-1 z" />
</svg>
